# xmcd CD database file
#
# Track frame offsets:
#	150
#	17595
#	38740
#	52870
#	71810
#	86860
#	106175
#
# Disc length: 1702 seconds
#
# Revision: 1
# Processed by: cddbd v1.5.2PL0 Copyright (c) Steve Scherf et al.
# Submitted via: CDex 1.70beta3
#
DISCID=5106a407
DTITLE=キュウソネコカミ - チェンジザワールド
DYEAR=2014
DGENRE=J-Rock
TTITLE0=ビビった
TTITLE1=カワイイだけ
TTITLE2=What's your name?
TTITLE3=スベテヨシゼンカナヤバジュモン
TTITLE4=御法度
TTITLE5=何も無い休日
TTITLE6=KMDT25
EXTD=YEAR: 2014
EXTT0=
EXTT1=
EXTT2=
EXTT3=
EXTT4=
EXTT5=
EXTT6=
PLAYORDER=
